# xmcd CD database file
#
# Track frame offsets:
#	151
#	14528
#	24789
#	34430
#	43011
#	56184
#	70423
#	80022
#	92106
#	106004
#
# Disc length: 1562 seconds
#
# Revision: 2
# Processed by: cddbd v1.5.1PL2 Copyright (c) Steve Scherf et al.
# Submitted via: NeoAudio 9.9.9
#
DISCID=8106180a
DTITLE=Anne Murray - Both Sides Now
DYEAR=2002
DGENRE=Country
TTITLE0=Both Sides Now
TTITLE1=For Baby
TTITLE2=It's All Over
TTITLE3=Paths Of Victory
TTITLE4=Buffalo In the Park
TTITLE5=David's Song
TTITLE6=Some Birds
TTITLE7=All The Time
TTITLE8=There Goes My Everything
TTITLE9=The  Last Thing On My Mind
EXTD=YEAR: 2002
EXTT0=
EXTT1=
EXTT2=
EXTT3=
EXTT4=
EXTT5=
EXTT6=
EXTT7=
EXTT8=
EXTT9=
PLAYORDER=
